<svg width="28" height="27" viewBox="0 0 28 27" fill="none" xmlns="http://www.w3.org/2000/svg">
<rect x="1.03204" y="0.25" width="26.5" height="26.5" rx="4.75" fill="black"/>
<rect x="1.03204" y="0.25" width="26.5" height="26.5" rx="4.75" stroke="black" stroke-width="0.5"/>
<g clip-path="url(#clip0_407_1637)">
<rect x="4.82532" y="4.04327" width="18.9135" height="18.9135" rx="5" fill="white"/>
<path d="M12.8753 14.9232C12.8753 14.4386 13.1082 13.6678 14.9168 13.6678C15.4712 13.6678 15.8128 13.708 16.2715 13.8109C16.1249 15.7093 15.1958 15.9599 14.2927 15.9599C13.7985 15.9599 12.8753 15.7022 12.8753 14.9232Z" fill="black"/>
<path d="M7.88693 22.9567H20.6772C21.4891 22.9567 22.2679 22.6342 22.842 22.06C23.4162 21.4858 23.7388 20.7071 23.7388 19.8951V7.10489C23.7388 6.2929 23.4162 5.51416 22.842 4.94C22.2679 4.36584 21.4891 4.04327 20.6772 4.04327H7.88693C7.07494 4.04327 6.29621 4.36584 5.72204 4.94C5.14788 5.51416 4.82532 6.2929 4.82532 7.10489V19.8951C4.82532 20.7071 5.14788 21.4858 5.72204 22.06C6.29621 22.6342 7.07494 22.9567 7.88693 22.9567ZM11.7595 11.0294C12.4297 10.0719 13.3139 9.6984 14.5374 9.6984C15.4003 9.6984 16.1344 9.98919 16.6592 10.5389C17.1829 11.0897 17.482 11.877 17.5505 12.8829C17.8405 13.0043 18.1077 13.1473 18.352 13.312C19.3355 13.9728 19.8769 14.9611 19.8769 16.0935C19.8769 18.5014 17.9028 20.5925 14.3305 20.5925C11.263 20.5925 8.07607 18.8076 8.07607 13.4953C8.07607 8.21133 11.1625 6.40746 14.3211 6.40746C15.7798 6.40746 19.2019 6.6226 20.488 10.8722L19.2823 11.1843C18.287 8.15813 16.2006 7.67584 14.2891 7.67584C11.127 7.67584 9.33972 9.60028 9.33972 13.6962C9.33972 17.369 11.3375 19.3194 14.3305 19.3194C16.7928 19.3194 18.6286 18.0404 18.6286 16.1668C18.6286 14.8913 17.5576 14.2814 17.5021 14.2814C17.2928 15.3748 16.7325 17.2153 14.2714 17.2153C12.8375 17.2153 11.5999 16.2247 11.5999 14.9268C11.5999 13.0733 13.3588 12.4018 14.7478 12.4018C15.2679 12.4018 15.8944 12.4373 16.2219 12.5035C16.2219 11.9385 15.7443 10.9715 14.5362 10.9715C13.4593 10.9715 13.165 11.312 12.8222 11.7091L12.7938 11.741C12.555 11.5815 11.7595 11.0294 11.7595 11.0294Z" fill="black"/>
</g>
<defs>
<clipPath id="clip0_407_1637">
<rect x="4.82532" y="4.04327" width="18.9135" height="18.9135" rx="5" fill="white"/>
</clipPath>
</defs>
</svg>
